#!OML:ASF X:\für Bonn\!DataBase\2005_08_10_Bjorn_Final\c3d\bjorn.ASF
:FULLY-SPECIFIED
:DEGREES
226
root 3.75368 11.7067 -0.402314 187.082 -267.393 -528.467
lowerback 29.7794 -0.673888 5.73783
upperback 14.6292 2.5669 5.77869
thorax 0.12804 2.0527 2.37441
lowerneck -14.1494 1.03809 5.87778
upperneck 2.34917 1.45215 -13.6275
head 3.17686 0.249854 -5.06718
rclavicle -3.18055e-014 -3.33958e-014
rhumerus -6.01161 -19.3681 -76.985
rradius 24.2428
rwrist 15.6684
rhand -22.186 13.958
rfingers 7.12502
rthumb 4.22915 -15.9797
lclavicle -3.18055e-014 -3.33958e-014
lhumerus -23.617 -55.1442 72.9988
lradius 50.9512
lwrist -0.117804
lhand -23.9358 -7.47575
lfingers 7.12502
lthumb 2.5394 22.4889
rfemur -62.4733 -18.994 5.96736
rtibia 126.34
rfoot -20.5184 43.8377
rtoes 1.59825
lfemur -64.7255 24.803 -16.444
ltibia 128.411
lfoot -29.4929 -10.0242
ltoes -36.6353
227
root 3.77365 11.8666 -0.400607 187.507 -267.23 -528.388
lowerback 29.0889 -0.512226 5.56478
upperback 14.3856 2.60673 5.67592
thorax 0.150064 2.04035 2.34863
lowerneck -14.5155 1.04979 5.76285
upperneck 2.80962 1.52066 -13.5983
head 3.37953 0.256522 -5.04018
rclavicle 1.59028e-014 2.54444e-014
rhumerus -6.16202 -19.3677 -77.0732
rradius 24.2269
rwrist 14.8498
rhand -20.7538 13.3256
rfingers 7.12502
rthumb 5.6121 -16.5801
lclavicle 1.59028e-014 2.54444e-014
lhumerus -24.8757 -54.9653 74.0154
lradius 50.9525
lwrist 0.115581
lhand -23.7867 -7.45363
lfingers 7.12502
lthumb 2.68338 22.5092
rfemur -61.999 -17.7878 6.50501
rtibia 125.074
rfoot -20.7495 42.8862
rtoes 1.99287
lfemur -64.1441 23.843 -16.6877
ltibia 127.131
lfoot -29.3391 -9.56752
ltoes -36.338
228
root 3.79531 12.0283 -0.399111 188.883 -267.038 -527.346
lowerback 28.4292 -0.335181 5.35697
upperback 14.124 2.66225 5.5454
thorax 0.141334 2.03392 2.3076
lowerneck -14.8937 1.05296 5.6461
upperneck 3.31512 1.57975 -13.5382
head 3.59654 0.257523 -5.00451
rclavicle -2.22639e-014 -3.65764e-014
rhumerus -6.34551 -19.3691 -77.1437
rradius 24.1701
rwrist 14.0178
rhand -19.2536 12.8252
rfingers 7.12502
rthumb 7.06038 -17.0371
lclavicle -2.22639e-014 -3.65764e-014
lhumerus -26.1183 -54.8363 75.0102
lradius 50.9564
lwrist 0.339939
lhand -23.5787 -7.45527
lfingers 7.12502
lthumb 2.88421 22.505
rfemur -61.4861 -16.688 6.93061
rtibia 123.788
rfoot -21.108 41.97
rtoes 2.07147
lfemur -63.5367 22.9511 -16.9948
ltibia 125.832
lfoot -29.1769 -9.05563
ltoes -35.9841
229
root 3.81746 12.1921 -0.396693 190.816 -266.846 -525.758
lowerback 27.7558 -0.157013 5.10017
upperback 13.8508 2.7108 5.41782
thorax 0.127433 2.02119 2.30103
lowerneck -15.2208 1.0513 5.49062
upperneck 3.79775 1.63923 -13.4691
head 3.79854 0.261068 -4.95911
rclavicle -2.8625e-014 -2.8625e-014
rhumerus -6.52545 -19.4561 -77.1988
rradius 24.0581
rwrist 13.3229
rhand -17.787 12.4534
rfingers 7.12502
rthumb 8.47587 -17.3565
lclavicle -2.8625e-014 -2.8625e-014
lhumerus -27.3348 -54.6394 76.0545
lradius 50.859
lwrist 0.455877
lhand -23.3513 -7.50292
lfingers 7.12502
lthumb 3.10384 22.4542
rfemur -60.9666 -15.6939 7.28313
rtibia 122.479
rfoot -21.3821 41.1048
rtoes 2.30484
lfemur -62.9121 22.062 -17.3314
ltibia 124.483
lfoot -29.0082 -8.58029
ltoes -35.5941
230
root 3.84084 12.3562 -0.394834 192.473 -266.65 -524.396
lowerback 27.1457 0.0125766 4.87337
upperback 13.5756 2.76746 5.27103
thorax 0.0890927 2.01587 2.25458
lowerneck -15.5609 1.05019 5.35437
upperneck 4.28933 1.69489 -13.38
head 4.00518 0.262998 -4.9113
rclavicle 6.36111e-015 3.65764e-014
rhumerus -6.75159 -19.4831 -77.2458
rradius 23.9727
rwrist 12.5504
rhand -16.375 12.0989
rfingers 7.12502
rthumb 9.83842 -17.6512
lclavicle 6.36111e-015 3.65764e-014
lhumerus -28.543 -54.5055 77.063
lradius 50.7826
lwrist 0.5132
lhand -23.1829 -7.49633
lfingers 7.12502
lthumb 3.26648 22.4584
rfemur -60.349 -14.781 7.59259
rtibia 121.139
rfoot -21.7236 40.2857
rtoes 2.36493
lfemur -62.2224 21.2619 -17.6406
ltibia 123.124
lfoot -28.8986 -8.04739
ltoes -35.38
231
root 3.86542 12.5223 -0.391785 193.037 -266.468 -524.089
lowerback 26.5795 0.177413 4.72516
upperback 13.2677 2.84416 5.12177
thorax 0.00121889 2.02342 2.15524
lowerneck -15.7854 1.02489 5.24869
upperneck 4.80759 1.71395 -13.2758
head 4.19799 0.250669 -4.86645
rclavicle -7.95139e-015 -3.97569e-014
rhumerus -7.06245 -19.6747 -77.2835
rradius 23.8632
rwrist 11.8694
rhand -14.9725 11.852
rfingers 7.12502
rthumb 11.1913 -17.8295
lclavicle -7.95139e-015 -3.97569e-014
lhumerus -29.8113 -54.3667 78.1361
lradius 50.6371
lwrist 0.433988
lhand -23.0154 -7.53875
lfingers 7.12502
lthumb 3.42826 22.4134
rfemur -59.6697 -13.8831 7.95311
rtibia 119.763
rfoot -22.074 39.4639
rtoes 2.45496
lfemur -61.4538 20.5511 -17.8401
ltibia 121.731
lfoot -28.7893 -7.59376
ltoes -35.177
232
root 3.89098 12.69 -0.389675 193.318 -266.299 -524.046
lowerback 26.0651 0.321151 4.60148
upperback 12.9381 2.9079 4.96941
thorax -0.129891 2.0253 2.0416
lowerneck -15.9963 0.998456 5.12612
upperneck 5.34407 1.73517 -13.1549
head 4.39453 0.240036 -4.81369
rclavicle -4.77083e-015 1.27222e-014
rhumerus -7.44 -19.7501 -77.3076
rradius 23.7988
rwrist 11.177
rhand -13.6643 11.5898
rfingers 7.12502
rthumb 12.4528 -18.0192
lclavicle -4.77083e-015 1.27222e-014
lhumerus -31.1434 -54.2447 79.2422
lradius 50.4982
lwrist 0.30386
lhand -22.8957 -7.55753
lfingers 7.12502
lthumb 3.54381 22.3928
rfemur -58.9248 -13.0547 8.29907
rtibia 118.345
rfoot -22.3625 38.6917
rtoes 2.76807
lfemur -60.6432 19.8917 -18.0094
ltibia 120.306
lfoot -28.6919 -7.18167
ltoes -34.8728
233
root 3.91707 12.8595 -0.386418 192.491 -266.149 -525.083
lowerback 25.5583 0.444 4.56039
upperback 12.6272 2.96936 4.81908
thorax -0.23533 2.03214 1.88661
lowerneck -16.2634 0.983366 5.07961
upperneck 5.94524 1.77026 -13.1145
head 4.62402 0.229977 -4.80011
rclavicle 3.81667e-014 2.06736e-014
rhumerus -7.76248 -19.9423 -77.3612
rradius 23.667
rwrist 10.5795
rhand -12.4543 11.3924
rfingers 7.12502
rthumb 13.6192 -18.142
lclavicle 3.81667e-014 2.06736e-014
lhumerus -32.4578 -54.1441 80.308
lradius 50.3849
lwrist 0.260291
lhand -22.843 -7.58899
lfingers 7.12502
lthumb 3.59468 22.3604
rfemur -58.122 -12.2322 8.72161
rtibia 116.889
rfoot -22.6927 37.8726
rtoes 2.87076
lfemur -59.79 19.3109 -18.0612
ltibia 118.859
lfoot -28.5986 -6.79543
ltoes -34.6096
234
root 3.94458 13.0293 -0.383742 191.781 -266.005 -526.003
lowerback 25.0194 0.564347 4.52053
upperback 12.3321 3.0288 4.67377
thorax -0.304771 2.03939 1.74021
lowerneck -16.5324 0.962993 5.03425
upperneck 6.53626 1.79888 -13.083
head 4.85116 0.216909 -4.79061
rclavicle -3.65764e-014 1.59028e-014
rhumerus -8.10385 -20.005 -77.3876
rradius 23.5821
rwrist 9.92964
rhand -11.396 11.1949
rfingers 7.12502
rthumb 14.639 -18.2683
lclavicle -3.65764e-014 1.59028e-014
lhumerus -33.6965 -53.9758 81.3566
lradius 50.2282
lwrist 0.140072
lhand -22.7338 -7.59368
lfingers 7.12502
lthumb 3.70017 22.3539
rfemur -57.3008 -11.4886 9.10731
rtibia 115.401
rfoot -22.8934 37.1896
rtoes 3.31566
lfemur -58.9205 18.7561 -18.1173
ltibia 117.387
lfoot -28.5117 -6.38648
ltoes -34.4672
235
root 3.97346 13.1995 -0.380437 191.148 -265.862 -526.855
lowerback 24.4407 0.6741 4.4832
upperback 12.0517 3.07457 4.52332
thorax -0.334776 2.04147 1.5937
lowerneck -16.7932 0.936621 4.97835
upperneck 7.13584 1.81976 -13.0263
head 5.07922 0.201476 -4.77251
rclavicle -2.06736e-014 -3.97569e-014
rhumerus -8.43356 -20.0875 -77.4339
rradius 23.5212
rwrist 9.34628
rhand -10.5185 10.9822
rfingers 7.12502
rthumb 15.4843 -18.4177
lclavicle -2.06736e-014 -3.97569e-014
lhumerus -34.8718 -53.7544 82.3453
lradius 50.0775
lwrist -0.075498
lhand -22.5916 -7.49703
lfingers 7.12502
lthumb 3.83745 22.4482
rfemur -56.4706 -10.8108 9.47364
rtibia 113.895
rfoot -23.13 36.5041
rtoes 3.62891
lfemur -58.0423 18.2446 -18.1808
ltibia 115.882
lfoot -28.456 -5.91318
ltoes -34.4955
236
root 4.0026 13.3684 -0.377288 190.144 -265.743 -528.079
lowerback 23.8553 0.772342 4.47167
upperback 11.7749 3.11443 4.38693
thorax -0.353333 2.0422 1.45123
lowerneck -17.0367 0.90625 4.91988
upperneck 7.68464 1.83017 -12.9584
head 5.28839 0.184066 -4.75086
rclavicle -1.59028e-014 7.95139e-015
rhumerus -8.74024 -20.1505 -77.4871
rradius 23.4466
rwrist 8.79917
rhand -9.85251 10.7965
rfingers 7.12502
rthumb 16.1257 -18.5526
lclavicle -1.59028e-014 7.95139e-015
lhumerus -36.0003 -53.4469 83.3124
lradius 49.9245
lwrist -0.347338
lhand -22.3483 -7.39642
lfingers 7.12502
lthumb 4.07245 22.5444
rfemur -55.6306 -10.1768 9.86332
rtibia 112.358
rfoot -23.2303 35.9312
rtoes 4.33348
lfemur -57.1727 17.7625 -18.1886
ltibia 114.374
lfoot -28.3928 -5.52039
ltoes -34.4365
